<?xml version="1.0" encoding="UTF-8"?>
<svg width="344px" height="34px" viewBox="0 0 344 34" version="1.1" xmlns="http://www.w3.org/2000/svg" xmlns:xlink="http://www.w3.org/1999/xlink">
    <!-- Generator: Sketch 46.2 (44496) - http://www.bohemiancoding.com/sketch -->
    <title>Group 2</title>
    <desc>Created with Sketch.</desc>
    <defs></defs>
    <g id="Page-1" stroke="none" stroke-width="1" fill="none" fill-rule="evenodd">
        <g id="Group-2">
            <g id="cordzero-logo" fill-rule="nonzero">
                <g id="Group" transform="translate(0.000000, 3.000000)" fill="#FFFFFF">
                    <polygon id="Shape" points="7.3 0.3 0.5 0.3 0.5 29.8 21.5 29.8 21.5 24.1 7.3 24.1"></polygon>
                    <path d="M36.4,18.6 L42,18.6 L42,23.8 C41,24.2 39,24.6 37.1,24.6 C31,24.6 28.9,21.5 28.9,15.2 C28.9,9.2 30.8,5.6 37,5.6 C40.4,5.6 42.4,6.7 44,8.7 L48.2,4.8 C45.6,1.1 41.1,3.55271368e-15 36.9,3.55271368e-15 C27.4,3.55271368e-15 22.3,5.2 22.3,15.1 C22.3,25 26.8,30.3 36.8,30.3 C41.4,30.3 45.8,29.1 48.3,27.4 L48.3,13.1 L36.4,13.1 L36.4,18.6 Z" id="Shape"></path>
                </g>
                <g id="Group" transform="translate(65.000000, 0.000000)">
                    <g id="Shape" fill="#FFFFFF">
                        <path d="M40.4,32.8 C34.2,32.8 29.6,27.8 29.6,21.3 C29.6,14.8 34,10.2 40.4,10.2 L44.2,10.2 C50.6,10.2 55.1,14.8 55.1,21.3 C55.1,27.9 50.4,32.8 44.2,32.8 L40.4,32.8 Z M41,14.5 C37.2,14.5 34.4,17.4 34.4,21.5 C34.4,25.6 37.2,28.6 41,28.6 L43.6,28.6 C47.5,28.6 50.3,25.6 50.3,21.5 C50.3,17.4 47.5,14.5 43.6,14.5 L41,14.5 Z"></path>
                        <path d="M93.1,0.1 L93.1,10.3 L86.1,10.3 C79.7,10.3 75.3,14.9 75.3,21.4 C75.3,28 80,32.9 86.1,32.9 L97.8,32.9 L97.8,20.4 L97.8,10.2 L97.8,0.1 L93.1,0.1 Z M93.1,28.5 L86.7,28.5 C82.9,28.5 80.1,25.5 80.1,21.4 C80.1,17.4 82.9,14.4 86.7,14.4 L93.1,14.4 L93.1,20.3 L93.1,28.5 Z"></path>
                        <path d="M15,32.8 C7,32.8 0.9,26.3 0.9,17.8 C0.9,9.3 6.7,3.4 15,3.4 L28.5,3.4 L25.3,8.1 L16,8.1 C10.6,8.1 6.1,12.6 6.1,18.1 C6.1,23.6 10.5,28.1 16,28.1 L16.5,28.1 L16.5,28.1 L28.6,28.1 L25.4,32.8 L15,32.8 Z"></path>
                        <path d="M58.5,32.8 L58.5,18.4 C58.5,14 62,10.4 66.3,10.3 L66.3,10.3 L66.5,10.3 L76.4,10.3 L73.5,14.6 L66.9,14.6 C64.9,14.6 63.3,16.3 63.2,18.3 L63.2,32.9 L58.5,32.9 L58.5,32.8 Z"></path>
                    </g>
                    <g transform="translate(102.000000, 3.000000)" id="Shape" fill="#C00C3F">
                        <path d="M34.3,20.9 L34.2,20.7 L53.7,20.7 C54,19.4 53.9,18.2 53.9,18.2 C53.9,11.7 49.4,7.1 43,7.1 L40,7.1 C33.6,7.1 29.2,11.7 29.2,18.2 C29.2,24.8 33.8,29.7 40,29.7 L49.4,29.7 L52.3,25.5 L40.7,25.5 C37.7,25.7 35.2,23.8 34.3,20.9 Z M40.6,11.4 L42.4,11.4 C45.7,11.4 48.3,13.5 49,16.7 L48.9,16.7 C48.9,16.7 48.9,16.7 48.9,16.7 L34.2,16.7 C34.2,16.7 34.2,16.7 34.2,16.7 L34.1,16.7 C34.8,13.5 37.4,11.4 40.6,11.4 Z"></path>
                        <path d="M85.4,29.8 C79.2,29.8 74.6,24.8 74.6,18.3 C74.6,11.8 79,7.2 85.4,7.2 L89.2,7.2 C95.6,7.2 100.1,11.8 100.1,18.3 C100.1,24.9 95.4,29.8 89.2,29.8 L85.4,29.8 Z M86.1,11.5 C82.3,11.5 79.5,14.4 79.5,18.5 C79.5,22.6 82.3,25.6 86.1,25.6 L88.7,25.6 C92.6,25.6 95.4,22.6 95.4,18.5 C95.4,14.4 92.7,11.5 88.7,11.5 L86.1,11.5 Z"></path>
                        <polygon points="0.9 29.8 18.5 4.9 1.9 4.9 5 0.3 27.7 0.3 10.2 25.2 28.5 25.2 25.3 29.8"></polygon>
                        <path d="M57.6,29.8 L57.6,15.4 C57.6,11 61.1,7.4 65.4,7.3 L65.4,7.3 L65.6,7.3 L75.5,7.3 L72.5,11.6 L66,11.6 C64,11.6 62.3,13.3 62.3,15.3 L62.3,29.9 L57.6,29.9 L57.6,29.8 Z"></path>
                    </g>
                    <g transform="translate(201.000000, 3.000000)" id="Shape" fill="#FFFFFF">
                        <polygon points="6.7 0.3 6.7 1.5 4.5 1.5 4.5 7.7 3 7.7 3 1.5 0.8 1.5 0.8 0.3"></polygon>
                        <polygon points="15.5 0.3 15.5 7.7 14 7.7 14 1.5 13.9 1.5 12.5 7.7 10.5 7.7 9.1 1.5 9 1.5 9 7.7 7.5 7.7 7.5 0.3 10.1 0.3 11.5 6.5 11.6 6.5 12.9 0.3 15.5 0.3"></polygon>
                    </g>
                </g>
                <g id="Group" transform="translate(286.000000, 2.000000)" fill="#FFFFFF">
                    <path d="M23.4,30.8 L20.6,22.7 L8.6,22.7 L5.8,30.8 L0.8,30.8 L11.5,1.3 L18,1.3 L28.5,30.8 L23.4,30.8 Z M14.5,5 L9.9,18.9 L19.3,18.9 L14.8,5 L14.5,5 Z" id="Shape"></path>
                    <path d="M50.8,14.7 C50.8,17.3 50.6,19.6 50,21.7 C49.5,23.7 48.7,25.5 47.6,26.9 C46.5,28.3 45.2,29.4 43.5,30.2 C41.8,31 39.8,31.3 37.5,31.3 C36.2,31.3 35,31.2 34,31 C33,30.8 32,30.5 31.2,30.2 L32.3,26.7 C32.9,27 33.7,27.2 34.6,27.4 C35.5,27.6 36.3,27.6 37.3,27.6 C38.7,27.6 39.8,27.4 40.8,27 C41.8,26.6 42.6,26.1 43.3,25.4 C44,24.7 44.5,23.9 44.9,22.9 C45.3,21.9 45.6,20.9 45.8,19.7 L46,18.4 C45.7,18.6 45.3,18.8 44.9,19 C44.5,19.2 44.1,19.4 43.7,19.5 C42.4,19.9 41.1,20.1 39.7,20.1 C36.6,20.1 34.2,19.3 32.6,17.8 C31,16.3 30.2,14 30.2,10.9 C30.2,9.4 30.4,8 30.9,6.7 C31.3,5.5 32,4.4 32.9,3.5 C33.8,2.6 34.8,1.9 36.1,1.4 C37.4,0.9 38.8,0.7 40.5,0.7 C42.2,0.7 43.7,1 45,1.5 C46.3,2 47.4,2.8 48.3,3.9 C49.2,5 49.9,6.4 50.3,8.2 C50.6,10.1 50.8,12.2 50.8,14.7 Z M45.8,10.8 C45.7,9.9 45.6,9 45.3,8.2 C45,7.4 44.7,6.7 44.2,6.2 C43.8,5.6 43.2,5.2 42.5,4.9 C41.8,4.6 41,4.4 40.1,4.4 C38.4,4.4 37,4.9 36,6 C35,7 34.5,8.6 34.5,10.8 C34.5,12.6 35,14 36,15 C37,16 38.4,16.5 40.1,16.5 C41.4,16.5 42.7,16.3 43.8,15.8 C44.2,15.7 44.5,15.5 44.9,15.3 C45.3,15.1 45.6,14.9 45.9,14.7 C46.1,13.3 46,12.1 45.8,10.8 Z" id="Shape"></path>
                </g>
            </g>
            <polygon id="1" fill="#FFFFFF" points="341.925858 10.4108976 341.925858 4.1335748 340.365669 4.91366929 340 4.15795276 342.291528 3 343.096 3 343.096 10.4108976"></polygon>
        </g>
    </g>
</svg>