<?xml version="1.0" encoding="UTF-8"?>
<svg width="296px" height="42px" viewBox="0 0 296 42" version="1.1" xmlns="http://www.w3.org/2000/svg" xmlns:xlink="http://www.w3.org/1999/xlink">
    <!-- Generator: Sketch 46.2 (44496) - http://www.bohemiancoding.com/sketch -->
    <title>Горизонтально Copy 2</title>
    <desc>Created with Sketch.</desc>
    <defs></defs>
    <g id="Page-1" stroke="none" stroke-width="1" fill="none" fill-rule="evenodd">
        <path d="M0.25,31 L0.25,0.6 L19.3,0.6 L19.3,5.4 L6.35,5.4 L6.35,31 L0.25,31 Z M31.5,31.5 C29.5333235,31.5 27.9000065,31.2416693 26.6,30.725 C25.2999935,30.2083307 24.2583372,29.4666715 23.475,28.5 C22.6916627,27.5333285 22.1416682,26.3666735 21.825,25 C21.5083317,23.6333265 21.35,22.083342 21.35,20.35 C21.35,16.683315 22.2416577,13.9333425 24.025,12.1 C25.8083422,10.2666575 28.6166475,9.35 32.45,9.35 C34.4166765,9.35 36.0499935,9.60833075 37.35,10.125 C38.6500065,10.6416692 39.6916627,11.3833285 40.475,12.35 C41.2583372,13.3166715 41.816665,14.4916598 42.15,15.875 C42.483335,17.2583402 42.65,18.816658 42.65,20.55 C42.65,24.216685 41.750009,26.9583243 39.95,28.775 C38.149991,30.5916757 35.3333525,31.5 31.5,31.5 Z M31.5,27.45 C33.4666765,27.45 34.7999965,26.8333395 35.5,25.6 C36.2000035,24.3666605 36.55,22.550012 36.55,20.15 C36.55,19.216662 36.4916672,18.3416708 36.375,17.525 C36.2583328,16.7083292 36.0500015,15.9916698 35.75,15.375 C35.4499985,14.7583302 35.033336,14.2666685 34.5,13.9 C33.966664,13.5333315 33.2833375,13.35 32.45,13.35 C30.516657,13.35 29.2000035,13.9749938 28.5,15.225 C27.7999965,16.4750062 27.45,18.299988 27.45,20.7 C27.45,21.633338 27.5083328,22.5083293 27.625,23.325 C27.7416672,24.1416708 27.9499985,24.8583303 28.25,25.475 C28.5500015,26.0916697 28.9583308,26.5749982 29.475,26.925 C29.9916693,27.2750018 30.6666625,27.45 31.5,27.45 Z M51.35,9.85 L51.75,11.1 C52.4500035,10.633331 53.166663,10.266668 53.9,10 C55.1333395,9.5666645 56.449993,9.35 57.85,9.35 C60.8833485,9.35 63.1166595,10.2916573 64.55,12.175 C65.9833405,14.0583428 66.7,16.599984 66.7,19.8 C66.7,21.5000085 66.5166685,23.0666595 66.15,24.5 C65.7833315,25.9333405 65.1916707,27.1666615 64.375,28.2 C63.5583293,29.2333385 62.5000065,30.0416637 61.2,30.625 C59.8999935,31.2083363 58.3333425,31.5 56.5,31.5 C55.499995,31.5 54.5500045,31.366668 53.65,31.1 C53.316665,30.9999995 52.983335,30.883334 52.65,30.75 L52.65,40.75 L46.65,41.55 L46.65,15.55 L46.25,9.85 L51.35,9.85 Z M53.35,27 C54.083337,27.2333345 54.7666635,27.35 55.4,27.35 C56.133337,27.35 56.8083302,27.2333345 57.425,27 C58.0416697,26.7666655 58.5749977,26.3750028 59.025,25.825 C59.4750023,25.2749973 59.833332,24.5500045 60.1,23.65 C60.366668,22.7499955 60.5,21.6166735 60.5,20.25 C60.5,15.783311 58.9500155,13.55 55.85,13.55 C54.8833285,13.55 54.0166705,13.783331 53.25,14.25 C53.049999,14.383334 52.850001,14.5333325 52.65,14.7 L52.65,26.7 C52.8833345,26.833334 53.1166655,26.933333 53.35,27 Z M82.4,9.85 L90.8,9.85 L90.8,31 L85.1,31 L85.1,14.55 L84.75,14.55 L79,31 L70.6,31 L70.6,9.85 L76.3,9.85 L76.3,26.3 L76.65,26.3 L82.4,9.85 Z M99.05,22.4 L99.05,18.6 L101.85,18.6 C102.616671,18.6 103.249998,18.5166675 103.75,18.35 C104.250002,18.1833325 104.649999,17.9750013 104.95,17.725 C105.250002,17.4749987 105.458333,17.1916683 105.575,16.875 C105.691667,16.5583317 105.75,16.266668 105.75,16 C105.75,15.2333295 105.44167,14.6000025 104.825,14.1 C104.20833,13.5999975 103.350005,13.35 102.25,13.35 C101.249995,13.35 100.308338,13.5249982 99.425,13.875 C98.5416623,14.2250018 97.8166695,14.73333 97.25,15.4 L94.05,12.3 C95.0833385,11.2666615 96.2833265,10.516669 97.65,10.05 C99.0166735,9.583331 100.69999,9.35 102.7,9.35 C103.800006,9.35 104.874995,9.449999 105.925,9.65 C106.975005,9.850001 107.908329,10.1666645 108.725,10.6 C109.541671,11.0333355 110.191664,11.5999965 110.675,12.3 C111.158336,13.0000035 111.4,13.8666615 111.4,14.9 C111.4,16.0666725 111.06667,17.049996 110.4,17.85 C109.73333,18.650004 108.850005,19.2666645 107.75,19.7 C108.950006,20.100002 109.983329,20.699996 110.85,21.5 C111.716671,22.300004 112.15,23.466659 112.15,25 C112.15,27.1666775 111.258342,28.7916613 109.475,29.875 C107.691658,30.9583387 105.316681,31.5 102.35,31.5 C100.149989,31.5 98.3583402,31.3083353 96.975,30.925 C95.5916597,30.5416648 94.466671,30.116669 93.6,29.65 L95.25,25.7 C96.250005,26.2000025 97.2416617,26.616665 98.225,26.95 C99.2083382,27.283335 100.383326,27.45 101.75,27.45 C102.650004,27.45 103.38333,27.3666675 103.95,27.2 C104.516669,27.0333325 104.958332,26.8250013 105.275,26.575 C105.591668,26.3249988 105.816666,26.0416682 105.95,25.725 C106.083334,25.4083317 106.15,25.1000015 106.15,24.8 C106.15,24.0333295 105.833336,23.4416687 105.2,23.025 C104.566663,22.6083312 103.500007,22.4 102,22.4 L99.05,22.4 Z M125.15,31.5 C123.183323,31.5 121.550007,31.2416693 120.25,30.725 C118.949993,30.2083307 117.908337,29.4666715 117.125,28.5 C116.341663,27.5333285 115.791668,26.3666735 115.475,25 C115.158332,23.6333265 115,22.083342 115,20.35 C115,16.683315 115.891658,13.9333425 117.675,12.1 C119.458342,10.2666575 122.266648,9.35 126.1,9.35 C128.066677,9.35 129.699993,9.60833075 131,10.125 C132.300007,10.6416692 133.341663,11.3833285 134.125,12.35 C134.908337,13.3166715 135.466665,14.4916598 135.8,15.875 C136.133335,17.2583402 136.3,18.816658 136.3,20.55 C136.3,24.216685 135.400009,26.9583243 133.6,28.775 C131.799991,30.5916757 128.983352,31.5 125.15,31.5 Z M125.15,27.45 C127.116676,27.45 128.449996,26.8333395 129.15,25.6 C129.850004,24.3666605 130.2,22.550012 130.2,20.15 C130.2,19.216662 130.141667,18.3416708 130.025,17.525 C129.908333,16.7083292 129.700001,15.9916698 129.4,15.375 C129.099998,14.7583302 128.683336,14.2666685 128.15,13.9 C127.616664,13.5333315 126.933338,13.35 126.1,13.35 C124.166657,13.35 122.850004,13.9749938 122.15,15.225 C121.449996,16.4750062 121.1,18.299988 121.1,20.7 C121.1,21.633338 121.158333,22.5083293 121.275,23.325 C121.391667,24.1416708 121.599998,24.8583303 121.9,25.475 C122.200001,26.0916697 122.608331,26.5749982 123.125,26.925 C123.641669,27.2750018 124.316662,27.45 125.15,27.45 Z M152.95,9.85 L158.95,9.85 L158.95,31 L152.95,31 L152.95,22.6 L146.25,22.6 L146.25,31 L140.25,31 L140.25,9.85 L146.25,9.85 L146.25,18.2 L152.95,18.2 L152.95,9.85 Z M161.65,14.25 L161.65,9.85 L180.35,9.85 L180.35,14.25 L174,14.25 L174,31 L168,31 L168,14.25 L161.65,14.25 Z M202.5,31 C201.899997,31.133334 201.150005,31.2 200.25,31.2 C199.049994,31.2 198.058337,31.0250018 197.275,30.675 C196.491663,30.3249982 195.866669,29.783337 195.4,29.05 C194.633329,29.783337 193.658339,30.3749977 192.475,30.825 C191.291661,31.2750022 190.183338,31.5 189.15,31.5 C187.583325,31.5 186.333338,31.3166685 185.4,30.95 C184.466662,30.5833315 183.733336,30.0833365 183.2,29.45 C182.666664,28.8166635 182.316668,28.100004 182.15,27.3 C181.983332,26.499996 181.9,25.666671 181.9,24.8 C181.9,23.399993 182.124998,22.2583378 182.575,21.375 C183.025002,20.4916622 183.666662,19.8000025 184.5,19.3 C185.333338,18.7999975 186.333327,18.450001 187.5,18.25 C188.666673,18.049999 189.966659,17.95 191.4,17.95 C191.866669,17.95 192.38333,17.9583332 192.95,17.975 C193.516669,17.9916667 194.016664,18.0166665 194.45,18.05 L194.45,17.05 C194.45,15.916661 194.125003,15.050003 193.475,14.45 C192.824997,13.849997 191.783341,13.55 190.35,13.55 C189.149994,13.55 188.000006,13.6999985 186.9,14 C185.799995,14.3000015 184.816671,14.683331 183.95,15.15 L182.75,11.5 C183.883339,10.899997 185.266659,10.3916688 186.9,9.975 C188.533342,9.55833125 190.183325,9.35 191.85,9.35 C193.516675,9.35 194.899995,9.4999985 196,9.8 C197.100005,10.1000015 197.98333,10.5916633 198.65,11.275 C199.31667,11.9583367 199.791665,12.866661 200.075,14 C200.358335,15.133339 200.5,16.5499915 200.5,18.25 L200.5,24.75 C200.5,25.616671 200.666665,26.2083318 201,26.525 C201.333335,26.8416683 201.83333,27 202.5,27 L202.5,31 Z M191.45,21.85 C190.183327,21.85 189.308336,22.0916642 188.825,22.575 C188.341664,23.0583357 188.1,23.733329 188.1,24.6 C188.1,25.5000045 188.274998,26.1999975 188.625,26.7 C188.975002,27.2000025 189.633329,27.45 190.6,27.45 C191.133336,27.45 191.766663,27.3416677 192.5,27.125 C193.233337,26.9083323 193.88333,26.533336 194.45,26 L194.45,22 C193.916664,21.933333 193.400003,21.8916668 192.9,21.875 C192.399998,21.8583332 191.916669,21.85 191.45,21.85 Z M203.35,26.3 C203.516668,26.3333335 203.699999,26.3583332 203.9,26.375 C204.100001,26.3916668 204.316665,26.4 204.55,26.4 C204.950002,26.4 205.291665,26.333334 205.575,26.2 C205.858335,26.066666 206.116666,25.8166685 206.35,25.45 C206.583335,25.0833315 206.774999,24.5583368 206.925,23.875 C207.075001,23.1916632 207.2,22.316672 207.3,21.25 C207.366667,20.516663 207.433333,19.6250052 207.5,18.575 C207.566667,17.5249947 207.625,16.4583387 207.675,15.375 C207.725,14.2916613 207.766667,13.2583382 207.8,12.275 C207.833334,11.2916618 207.85,10.4833365 207.85,9.85 L224.5,9.85 L224.5,31 L218.5,31 L218.5,14.25 L213.2,14.25 C213.133333,15.116671 213.058334,16.2249932 212.975,17.575 C212.891666,18.9250067 212.766668,20.4166585 212.6,22.05 C212.233332,25.316683 211.525005,27.6666595 210.475,29.1 C209.424995,30.5333405 207.883344,31.25 205.85,31.25 C205.28333,31.25 204.741669,31.216667 204.225,31.15 C203.708331,31.083333 203.316668,31.0000005 203.05,30.9 L203.35,26.3 Z M240.7,17 C241.733339,17 242.708329,17.1416652 243.625,17.425 C244.541671,17.7083347 245.341663,18.1333305 246.025,18.7 C246.708337,19.2666695 247.249998,19.983329 247.65,20.85 C248.050002,21.716671 248.25,22.7333275 248.25,23.9 C248.25,25.1333395 248.050002,26.1999955 247.65,27.1 C247.249998,28.0000045 246.683337,28.7333305 245.95,29.3 C245.216663,29.8666695 244.350005,30.2916653 243.35,30.575 C242.349995,30.8583348 241.23334,31 240,31 L229.3,31 L229.3,9.85 L235.2,9.85 L235.2,17 L240.7,17 Z M239.1,26.85 C241.133344,26.85 242.15,25.8666765 242.15,23.9 C242.15,23.099996 241.891669,22.4416692 241.375,21.925 C240.858331,21.4083308 240.100005,21.15 239.1,21.15 L235.2,21.15 L235.2,26.85 L239.1,26.85 Z M264.25,9.85 L270.25,9.85 L270.25,31 L264.25,31 L264.25,22.6 L257.55,22.6 L257.55,31 L251.55,31 L251.55,9.85 L257.55,9.85 L257.55,18.2 L264.25,18.2 L264.25,9.85 Z M284.35,31.5 C282.383324,31.5 280.750006,31.2416693 279.45,30.725 C278.149994,30.2083307 277.108337,29.4666715 276.325,28.5 C275.541663,27.5333285 274.991668,26.3666735 274.675,25 C274.358332,23.6333265 274.2,22.083342 274.2,20.35 C274.2,16.683315 275.091658,13.9333425 276.875,12.1 C278.658342,10.2666575 281.466647,9.35 285.3,9.35 C287.266676,9.35 288.899994,9.60833075 290.2,10.125 C291.500006,10.6416692 292.541663,11.3833285 293.325,12.35 C294.108337,13.3166715 294.666665,14.4916598 295,15.875 C295.333335,17.2583402 295.5,18.816658 295.5,20.55 C295.5,24.216685 294.600009,26.9583243 292.8,28.775 C290.999991,30.5916757 288.183353,31.5 284.35,31.5 Z M284.35,27.45 C286.316677,27.45 287.649997,26.8333395 288.35,25.6 C289.050004,24.3666605 289.4,22.550012 289.4,20.15 C289.4,19.216662 289.341667,18.3416708 289.225,17.525 C289.108333,16.7083292 288.900002,15.9916698 288.6,15.375 C288.299999,14.7583302 287.883336,14.2666685 287.35,13.9 C286.816664,13.5333315 286.133337,13.35 285.3,13.35 C283.366657,13.35 282.050004,13.9749938 281.35,15.225 C280.649997,16.4750062 280.3,18.299988 280.3,20.7 C280.3,21.633338 280.358333,22.5083293 280.475,23.325 C280.591667,24.1416708 280.799999,24.8583303 281.1,25.475 C281.400002,26.0916697 281.808331,26.5749982 282.325,26.925 C282.841669,27.2750018 283.516663,27.45 284.35,27.45 Z" id="Горизонтально-Copy-2" fill="#000000"></path>
    </g>
</svg>