<?xml version="1.0" encoding="UTF-8"?>
<svg width="201px" height="29px" viewBox="0 0 201 29" version="1.1" xmlns="http://www.w3.org/2000/svg" xmlns:xlink="http://www.w3.org/1999/xlink">
    <!-- Generator: Sketch 46.2 (44496) - http://www.bohemiancoding.com/sketch -->
    <title>Горизонтально Copy</title>
    <desc>Created with Sketch.</desc>
    <defs></defs>
    <g id="Page-1" stroke="none" stroke-width="1" fill="none" fill-rule="evenodd">
        <path d="M0.21,21 L0.21,0.328 L13.164,0.328 L13.164,3.592 L4.358,3.592 L4.358,21 L0.21,21 Z M21.46,21.34 C20.12266,21.34 19.0120044,21.1643351 18.128,20.813 C17.2439956,20.4616649 16.5356693,19.9573366 16.003,19.3 C15.4703307,18.6426634 15.0963344,17.849338 14.881,16.92 C14.6656656,15.990662 14.558,14.9366726 14.558,13.758 C14.558,11.2646542 15.1643273,9.3946729 16.377,8.148 C17.5896727,6.9013271 19.4993203,6.278 22.106,6.278 C23.44334,6.278 24.5539956,6.45366491 25.438,6.805 C26.3220044,7.15633509 27.0303307,7.66066338 27.563,8.318 C28.0956693,8.97533662 28.4753322,9.77432863 28.702,10.715 C28.9286678,11.6556714 29.042,12.7153274 29.042,13.894 C29.042,16.3873458 28.4300061,18.2516605 27.206,19.487 C25.9819939,20.7223395 24.0666797,21.34 21.46,21.34 Z M21.46,18.586 C22.79734,18.586 23.7039976,18.1666709 24.18,17.328 C24.6560024,16.4893291 24.894,15.2540082 24.894,13.622 C24.894,12.9873302 24.8543337,12.3923361 24.775,11.837 C24.6956663,11.2816639 24.554001,10.7943354 24.35,10.375 C24.145999,9.95566457 23.8626685,9.62133458 23.5,9.372 C23.1373315,9.12266542 22.6726695,8.998 22.106,8.998 C20.7913268,8.998 19.8960024,9.42299575 19.42,10.273 C18.9439976,11.1230042 18.706,12.3639918 18.706,13.996 C18.706,14.6306698 18.7456663,15.2256639 18.825,15.781 C18.9043337,16.3363361 19.045999,16.8236646 19.25,17.243 C19.454001,17.6623354 19.7316649,17.9909988 20.083,18.229 C20.4343351,18.4670012 20.8933305,18.586 21.46,18.586 Z M34.958,6.618 L35.23,7.468 C35.7060024,7.15066508 36.1933308,6.90133424 36.692,6.72 C37.5306709,6.42533186 38.4259952,6.278 39.378,6.278 C41.440677,6.278 42.9593285,6.91832693 43.934,8.199 C44.9086715,9.47967307 45.396,11.2079891 45.396,13.384 C45.396,14.5400058 45.2713346,15.6053285 45.022,16.58 C44.7726654,17.5546715 44.3703361,18.3933298 43.815,19.096 C43.2596639,19.7986702 42.5400044,20.3483314 41.656,20.745 C40.7719956,21.1416686 39.7066729,21.34 38.46,21.34 C37.7799966,21.34 37.1340031,21.2493342 36.522,21.068 C36.2953322,20.9999997 36.0686678,20.9206671 35.842,20.83 L35.842,27.63 L31.762,28.174 L31.762,10.494 L31.49,6.618 L34.958,6.618 Z M36.318,18.28 C36.8166692,18.4386675 37.2813312,18.518 37.712,18.518 C38.2106692,18.518 38.6696646,18.4386675 39.089,18.28 C39.5083354,18.1213325 39.8709985,17.8550019 40.177,17.481 C40.4830015,17.1069981 40.7266658,16.6140031 40.908,16.002 C41.0893342,15.3899969 41.18,14.619338 41.18,13.69 C41.18,10.6526515 40.1260105,9.134 38.018,9.134 C37.3606634,9.134 36.7713359,9.29266508 36.25,9.61 C36.1139993,9.70066712 35.9780007,9.8026661 35.842,9.916 L35.842,18.076 C36.0006675,18.1666671 36.1593325,18.2346664 36.318,18.28 Z M56.072,6.618 L61.784,6.618 L61.784,21 L57.908,21 L57.908,9.814 L57.67,9.814 L53.76,21 L48.048,21 L48.048,6.618 L51.924,6.618 L51.924,17.804 L52.162,17.804 L56.072,6.618 Z M67.394,15.152 L67.394,12.568 L69.298,12.568 C69.8193359,12.568 70.2499983,12.5113339 70.59,12.398 C70.9300017,12.2846661 71.201999,12.1430008 71.406,11.973 C71.610001,11.8029992 71.7516663,11.6103344 71.831,11.395 C71.9103337,11.1796656 71.95,10.9813342 71.95,10.8 C71.95,10.2786641 71.7403354,9.8480017 71.321,9.508 C70.9016646,9.1679983 70.3180037,8.998 69.57,8.998 C68.8899966,8.998 68.2496697,9.11699881 67.649,9.355 C67.0483303,9.59300119 66.5553353,9.9386644 66.17,10.392 L63.994,8.284 C64.6966702,7.58132982 65.512662,7.07133492 66.442,6.754 C67.371338,6.43666508 68.5159932,6.278 69.876,6.278 C70.6240037,6.278 71.3549964,6.34599932 72.069,6.482 C72.7830036,6.61800068 73.4176639,6.83333186 73.973,7.128 C74.5283361,7.42266814 74.9703317,7.80799762 75.299,8.284 C75.6276683,8.76000238 75.792,9.34932982 75.792,10.052 C75.792,10.8453373 75.5653356,11.5139973 75.112,12.058 C74.6586644,12.6020027 74.0580037,13.0213319 73.31,13.316 C74.1260041,13.5880014 74.8286637,13.9959973 75.418,14.54 C76.0073363,15.0840027 76.302,15.8773281 76.302,16.92 C76.302,18.3933407 75.6956727,19.4983296 74.483,20.235 C73.2703273,20.9716704 71.6553434,21.34 69.638,21.34 C68.1419925,21.34 66.9236714,21.209668 65.983,20.949 C65.0423286,20.688332 64.2773363,20.3993349 63.688,20.082 L64.81,17.396 C65.4900034,17.7360017 66.16433,18.0193322 66.833,18.246 C67.50167,18.4726678 68.300662,18.586 69.23,18.586 C69.8420031,18.586 70.3406647,18.5293339 70.726,18.416 C71.1113353,18.3026661 71.4116656,18.1610008 71.627,17.991 C71.8423344,17.8209992 71.9953329,17.6283344 72.086,17.413 C72.1766671,17.1976656 72.222,16.988001 72.222,16.784 C72.222,16.2626641 72.0066688,15.8603347 71.576,15.577 C71.1453312,15.2936653 70.4200051,15.152 69.4,15.152 L67.394,15.152 Z M85.142,21.34 C83.80466,21.34 82.6940044,21.1643351 81.81,20.813 C80.9259956,20.4616649 80.2176693,19.9573366 79.685,19.3 C79.1523307,18.6426634 78.7783344,17.849338 78.563,16.92 C78.3476656,15.990662 78.24,14.9366726 78.24,13.758 C78.24,11.2646542 78.8463273,9.3946729 80.059,8.148 C81.2716727,6.9013271 83.1813203,6.278 85.788,6.278 C87.12534,6.278 88.2359956,6.45366491 89.12,6.805 C90.0040044,7.15633509 90.7123307,7.66066338 91.245,8.318 C91.7776693,8.97533662 92.1573322,9.77432863 92.384,10.715 C92.6106678,11.6556714 92.724,12.7153274 92.724,13.894 C92.724,16.3873458 92.1120061,18.2516605 90.888,19.487 C89.6639939,20.7223395 87.7486797,21.34 85.142,21.34 Z M85.142,18.586 C86.47934,18.586 87.3859976,18.1666709 87.862,17.328 C88.3380024,16.4893291 88.576,15.2540082 88.576,13.622 C88.576,12.9873302 88.5363337,12.3923361 88.457,11.837 C88.3776663,11.2816639 88.236001,10.7943354 88.032,10.375 C87.827999,9.95566457 87.5446685,9.62133458 87.182,9.372 C86.8193315,9.12266542 86.3546695,8.998 85.788,8.998 C84.4733268,8.998 83.5780024,9.42299575 83.102,10.273 C82.6259976,11.1230042 82.388,12.3639918 82.388,13.996 C82.388,14.6306698 82.4276663,15.2256639 82.507,15.781 C82.5863337,16.3363361 82.727999,16.8236646 82.932,17.243 C83.136001,17.6623354 83.4136649,17.9909988 83.765,18.229 C84.1163351,18.4670012 84.5753305,18.586 85.142,18.586 Z M104.046,6.618 L108.126,6.618 L108.126,21 L104.046,21 L104.046,15.288 L99.49,15.288 L99.49,21 L95.41,21 L95.41,6.618 L99.49,6.618 L99.49,12.296 L104.046,12.296 L104.046,6.618 Z M109.962,9.61 L109.962,6.618 L122.678,6.618 L122.678,9.61 L118.36,9.61 L118.36,21 L114.28,21 L114.28,9.61 L109.962,9.61 Z M137.74,21 C137.331998,21.0906671 136.822003,21.136 136.21,21.136 C135.393996,21.136 134.719669,21.0170012 134.187,20.779 C133.654331,20.5409988 133.229335,20.1726692 132.912,19.674 C132.390664,20.1726692 131.727671,20.5749985 130.923,20.881 C130.118329,21.1870015 129.36467,21.34 128.662,21.34 C127.596661,21.34 126.74667,21.2153346 126.112,20.966 C125.47733,20.7166654 124.978668,20.3766688 124.616,19.946 C124.253332,19.5153312 124.015334,19.0280027 123.902,18.484 C123.788666,17.9399973 123.732,17.3733363 123.732,16.784 C123.732,15.8319952 123.884998,15.0556697 124.191,14.455 C124.497002,13.8543303 124.933331,13.3840017 125.5,13.044 C126.066669,12.7039983 126.746663,12.4660007 127.54,12.33 C128.333337,12.1939993 129.217328,12.126 130.192,12.126 C130.509335,12.126 130.860665,12.1316666 131.246,12.143 C131.631335,12.1543334 131.971332,12.1713332 132.266,12.194 L132.266,11.514 C132.266,10.7433295 132.045002,10.154002 131.603,9.746 C131.160998,9.33799796 130.452672,9.134 129.478,9.134 C128.661996,9.134 127.880004,9.23599898 127.132,9.44 C126.383996,9.64400102 125.715336,9.90466508 125.126,10.222 L124.31,7.74 C125.080671,7.33199796 126.021328,6.98633475 127.132,6.703 C128.242672,6.41966525 129.364661,6.278 130.498,6.278 C131.631339,6.278 132.571996,6.37999898 133.32,6.584 C134.068004,6.78800102 134.668664,7.12233101 135.122,7.587 C135.575336,8.05166899 135.898332,8.66932948 136.091,9.44 C136.283668,10.2106705 136.38,11.1739942 136.38,12.33 L136.38,16.75 C136.38,17.3393363 136.493332,17.7416656 136.72,17.957 C136.946668,18.1723344 137.286664,18.28 137.74,18.28 L137.74,21 Z M130.226,14.778 C129.364662,14.778 128.769668,14.9423317 128.441,15.271 C128.112332,15.5996683 127.948,16.0586637 127.948,16.648 C127.948,17.2600031 128.066999,17.7359983 128.305,18.076 C128.543001,18.4160017 128.990663,18.586 129.648,18.586 C130.010668,18.586 130.441331,18.5123341 130.94,18.365 C131.438669,18.2176659 131.880665,17.9626685 132.266,17.6 L132.266,14.88 C131.903332,14.8346664 131.552002,14.8063334 131.212,14.795 C130.871998,14.7836666 130.543335,14.778 130.226,14.778 Z M138.318,17.804 C138.431334,17.8266668 138.555999,17.8436666 138.692,17.855 C138.828001,17.8663334 138.975333,17.872 139.134,17.872 C139.406001,17.872 139.638332,17.8266671 139.831,17.736 C140.023668,17.6453329 140.199333,17.4753346 140.358,17.226 C140.516667,16.9766654 140.646999,16.619669 140.749,16.155 C140.851001,15.690331 140.936,15.095337 141.004,14.37 C141.049334,13.8713308 141.094666,13.2650036 141.14,12.551 C141.185334,11.8369964 141.225,11.1116703 141.259,10.375 C141.293,9.63832965 141.321333,8.93567001 141.344,8.267 C141.366667,7.59832999 141.378,7.04866882 141.378,6.618 L152.7,6.618 L152.7,21 L148.62,21 L148.62,9.61 L145.016,9.61 C144.970666,10.1993363 144.919667,10.9529954 144.863,11.871 C144.806333,12.7890046 144.721334,13.8033278 144.608,14.914 C144.358665,17.1353444 143.877004,18.7333285 143.163,19.708 C142.448996,20.6826715 141.400674,21.17 140.018,21.17 C139.632665,21.17 139.264335,21.1473336 138.913,21.102 C138.561665,21.0566664 138.295334,21.0000003 138.114,20.932 L138.318,17.804 Z M163.716,11.48 C164.41867,11.48 165.081664,11.5763324 165.705,11.769 C166.328336,11.9616676 166.872331,12.2506647 167.337,12.636 C167.801669,13.0213353 168.169999,13.5086637 168.442,14.098 C168.714001,14.6873363 168.85,15.3786627 168.85,16.172 C168.85,17.0106709 168.714001,17.7359969 168.442,18.348 C168.169999,18.9600031 167.784669,19.4586647 167.286,19.844 C166.787331,20.2293353 166.198003,20.5183324 165.518,20.711 C164.837997,20.9036676 164.078671,21 163.24,21 L155.964,21 L155.964,6.618 L159.976,6.618 L159.976,11.48 L163.716,11.48 Z M162.628,18.178 C164.010674,18.178 164.702,17.50934 164.702,16.172 C164.702,15.6279973 164.526335,15.1803351 164.175,14.829 C163.823665,14.4776649 163.308003,14.302 162.628,14.302 L159.976,14.302 L159.976,18.178 L162.628,18.178 Z M179.73,6.618 L183.81,6.618 L183.81,21 L179.73,21 L179.73,15.288 L175.174,15.288 L175.174,21 L171.094,21 L171.094,6.618 L175.174,6.618 L175.174,12.296 L179.73,12.296 L179.73,6.618 Z M193.398,21.34 C192.06066,21.34 190.950004,21.1643351 190.066,20.813 C189.181996,20.4616649 188.473669,19.9573366 187.941,19.3 C187.408331,18.6426634 187.034334,17.849338 186.819,16.92 C186.603666,15.990662 186.496,14.9366726 186.496,13.758 C186.496,11.2646542 187.102327,9.3946729 188.315,8.148 C189.527673,6.9013271 191.43732,6.278 194.044,6.278 C195.38134,6.278 196.491996,6.45366491 197.376,6.805 C198.260004,7.15633509 198.968331,7.66066338 199.501,8.318 C200.033669,8.97533662 200.413332,9.77432863 200.64,10.715 C200.866668,11.6556714 200.98,12.7153274 200.98,13.894 C200.98,16.3873458 200.368006,18.2516605 199.144,19.487 C197.919994,20.7223395 196.00468,21.34 193.398,21.34 Z M193.398,18.586 C194.73534,18.586 195.641998,18.1666709 196.118,17.328 C196.594002,16.4893291 196.832,15.2540082 196.832,13.622 C196.832,12.9873302 196.792334,12.3923361 196.713,11.837 C196.633666,11.2816639 196.492001,10.7943354 196.288,10.375 C196.083999,9.95566457 195.800668,9.62133458 195.438,9.372 C195.075332,9.12266542 194.610669,8.998 194.044,8.998 C192.729327,8.998 191.834002,9.42299575 191.358,10.273 C190.881998,11.1230042 190.644,12.3639918 190.644,13.996 C190.644,14.6306698 190.683666,15.2256639 190.763,15.781 C190.842334,16.3363361 190.983999,16.8236646 191.188,17.243 C191.392001,17.6623354 191.669665,17.9909988 192.021,18.229 C192.372335,18.4670012 192.831331,18.586 193.398,18.586 Z" id="Горизонтально-Copy" fill="#A50034"></path>
    </g>
</svg>