<?xml version="1.0" encoding="UTF-8"?>
<svg width="392px" height="40px" viewBox="0 0 392 40" version="1.1" xmlns="http://www.w3.org/2000/svg" xmlns:xlink="http://www.w3.org/1999/xlink">
    <!-- Generator: Sketch 46.2 (44496) - http://www.bohemiancoding.com/sketch -->
    <title>Group 13</title>
    <desc>Created with Sketch.</desc>
    <defs></defs>
    <g id="Page-1" stroke="none" stroke-width="1" fill="none" fill-rule="evenodd">
        <g id="LG-Copy" transform="translate(-805.000000, -6561.000000)" fill-rule="nonzero">
            <g id="LG-CordZero-buy" transform="translate(178.000000, 6472.000000)">
                <g id="Bitmap">
                    <g id="Group-13" transform="translate(627.000000, 89.000000)">
                        <g id="cordzero-logo">
                            <g id="Group" transform="translate(0.000000, 3.000000)" fill="#7B7774">
                                <polygon id="Shape" points="8.49183673 0.358064516 0.581632653 0.358064516 0.581632653 35.5677419 25.0102041 35.5677419 25.0102041 28.7645161 8.49183673 28.7645161"></polygon>
                                <path d="M42.3428571,22.2 L48.8571429,22.2 L48.8571429,28.4064516 C47.6938776,28.883871 45.3673469,29.3612903 43.1571429,29.3612903 C36.0612245,29.3612903 33.6183673,25.6612903 33.6183673,18.1419355 C33.6183673,10.9806452 35.8285714,6.68387097 43.0408163,6.68387097 C46.9959184,6.68387097 49.322449,7.99677419 51.1836735,10.383871 L56.0693878,5.72903226 C53.044898,1.31290323 47.8102041,3.55271368e-15 42.9244898,3.55271368e-15 C31.8734694,3.55271368e-15 25.9408163,6.20645161 25.9408163,18.0225806 C25.9408163,29.8387097 31.1755102,36.1645161 42.8081633,36.1645161 C48.1591837,36.1645161 53.277551,34.7322581 56.1857143,32.7032258 L56.1857143,15.6354839 L42.3428571,15.6354839 L42.3428571,22.2 Z" id="Shape"></path>
                            </g>
                            <g id="Group" transform="translate(76.000000, 0.000000)">
                                <g id="Shape" fill="#7B7774">
                                    <path d="M46.0231371,38.8932806 C38.8268939,38.8932806 33.4877458,32.9644269 33.4877458,25.256917 C33.4877458,17.5494071 38.5947571,12.0948617 46.0231371,12.0948617 L50.4337378,12.0948617 C57.8621179,12.0948617 63.0851976,17.5494071 63.0851976,25.256917 C63.0851976,33.083004 57.629981,38.8932806 50.4337378,38.8932806 L46.0231371,38.8932806 Z M46.7195478,17.1936759 C42.3089471,17.1936759 39.0590308,20.6324111 39.0590308,25.4940711 C39.0590308,30.3557312 42.3089471,33.9130435 46.7195478,33.9130435 L49.7373272,33.9130435 C54.2639963,33.9130435 57.5139126,30.3557312 57.5139126,25.4940711 C57.5139126,20.6324111 54.2639963,17.1936759 49.7373272,17.1936759 L46.7195478,17.1936759 Z"></path>
                                    <path d="M107.191204,0.118577075 L107.191204,12.2134387 L99.0664137,12.2134387 C91.6380336,12.2134387 86.5310223,17.6679842 86.5310223,25.3754941 C86.5310223,33.201581 91.9862389,39.0118577 99.0664137,39.0118577 L112.646421,39.0118577 L112.646421,24.1897233 L112.646421,12.0948617 L112.646421,0.118577075 L107.191204,0.118577075 Z M107.191204,33.7944664 L99.7628243,33.7944664 C95.3522236,33.7944664 92.1023073,30.2371542 92.1023073,25.3754941 C92.1023073,20.6324111 95.3522236,17.0750988 99.7628243,17.0750988 L107.191204,17.0750988 L107.191204,24.0711462 L107.191204,33.7944664 Z"></path>
                                    <path d="M16.5417537,38.8932806 C7.2562786,38.8932806 0.176103838,31.1857708 0.176103838,21.1067194 C0.176103838,11.027668 6.90807329,4.03162055 16.5417537,4.03162055 L32.2109929,4.03162055 L28.4968029,9.60474308 L17.7024381,9.60474308 C11.4347424,9.60474308 6.21166265,14.9407115 6.21166265,21.4624506 C6.21166265,27.9841897 11.318674,33.3201581 17.7024381,33.3201581 L18.2827803,33.3201581 L18.2827803,33.3201581 L32.3270614,33.3201581 L28.6128713,38.8932806 L16.5417537,38.8932806 Z"></path>
                                    <path d="M67.0315246,38.8932806 L67.0315246,21.8181818 C67.0315246,16.6007905 71.0939199,12.3320158 76.0848628,12.2134387 L76.0848628,12.2134387 L76.3169997,12.2134387 L87.8077751,12.2134387 L84.4417904,17.312253 L76.7812734,17.312253 C74.4599046,17.312253 72.6028096,19.3280632 72.4867412,21.6996047 L72.4867412,39.0118577 L67.0315246,39.0118577 L67.0315246,38.8932806 Z"></path>
                                </g>
                                <g transform="translate(118.389808, 3.557312)" id="Shape" fill="#C00C3F">
                                    <path d="M38.9429624,24.7826087 L38.8268939,24.5454545 L61.4602395,24.5454545 C61.8084448,23.0039526 61.6923764,21.5810277 61.6923764,21.5810277 C61.6923764,13.8735178 56.4692966,8.41897233 49.0409166,8.41897233 L45.5588634,8.41897233 C38.1304833,8.41897233 33.023472,13.8735178 33.023472,21.5810277 C33.023472,29.4071146 38.3626202,35.2173913 45.5588634,35.2173913 L56.4692966,35.2173913 L59.8352814,30.2371542 L46.3713425,30.2371542 C42.8892893,30.4743083 39.9875783,28.2213439 38.9429624,24.7826087 Z M46.255274,13.5177866 L48.3445059,13.5177866 C52.1747644,13.5177866 55.1925438,16.0079051 56.0050229,19.8023715 L55.8889544,19.8023715 C55.8889544,19.8023715 55.8889544,19.8023715 55.8889544,19.8023715 L38.8268939,19.8023715 C38.8268939,19.8023715 38.8268939,19.8023715 38.8268939,19.8023715 L38.7108255,19.8023715 C39.5233046,16.0079051 42.541084,13.5177866 46.255274,13.5177866 Z"></path>
                                    <path d="M98.2539346,35.3359684 C91.0576914,35.3359684 85.7185432,29.4071146 85.7185432,21.6996047 C85.7185432,13.9920949 90.8255545,8.53754941 98.2539346,8.53754941 L102.664535,8.53754941 C110.092915,8.53754941 115.315995,13.9920949 115.315995,21.6996047 C115.315995,29.5256917 109.860778,35.3359684 102.664535,35.3359684 L98.2539346,35.3359684 Z M99.0664137,13.6363636 C94.655813,13.6363636 91.4058967,17.0750988 91.4058967,21.9367589 C91.4058967,26.798419 94.655813,30.3557312 99.0664137,30.3557312 L102.084193,30.3557312 C106.610862,30.3557312 109.860778,26.798419 109.860778,21.9367589 C109.860778,17.0750988 106.726931,13.6363636 102.084193,13.6363636 L99.0664137,13.6363636 Z"></path>
                                    <polygon points="0.176103838 35.3359684 20.6041491 5.81027668 1.33678823 5.81027668 4.93490983 0.355731225 31.2824454 0.355731225 10.9704686 29.8814229 32.2109929 29.8814229 28.4968029 35.3359684"></polygon>
                                    <path d="M65.9869086,35.3359684 L65.9869086,18.2608696 C65.9869086,13.0434783 70.049304,8.77470356 75.0402468,8.65612648 L75.0402468,8.65612648 L75.2723837,8.65612648 L86.7631592,8.65612648 L83.281106,13.7549407 L75.7366575,13.7549407 C73.4152887,13.7549407 71.4421252,15.770751 71.4421252,18.1422925 L71.4421252,35.4545455 L65.9869086,35.4545455 L65.9869086,35.3359684 Z"></path>
                                </g>
                                <g transform="translate(233.297562, 3.557312)" id="Shape" fill="#7B7774">
                                    <polygon points="6.90807329 0.355731225 6.90807329 1.77865613 4.35456763 1.77865613 4.35456763 9.13043478 2.61354105 9.13043478 2.61354105 1.77865613 0.0600353994 1.77865613 0.0600353994 0.355731225"></polygon>
                                    <polygon points="17.1220959 0.355731225 17.1220959 9.13043478 15.3810693 9.13043478 15.3810693 1.77865613 15.2650009 1.77865613 13.6400427 9.13043478 11.318674 9.13043478 9.69371582 1.77865613 9.57764738 1.77865613 9.57764738 9.13043478 7.8366208 9.13043478 7.8366208 0.355731225 10.8544002 0.355731225 12.4793583 7.70750988 12.5954268 7.70750988 14.1043165 0.355731225 17.1220959 0.355731225"></polygon>
                                </g>
                            </g>
                            <g id="Group" transform="translate(334.000000, 3.000000)" fill="#7B7774">
                                <path d="M26.1432836,35.6125 L22.9114428,26.246875 L9.06069652,26.246875 L5.82885572,35.6125 L0.0577114428,35.6125 L12.4079602,1.503125 L19.9104478,1.503125 L32.0298507,35.6125 L26.1432836,35.6125 Z M15.8706468,5.78125 L10.561194,21.853125 L21.4109453,21.853125 L16.2169154,5.78125 L15.8706468,5.78125 Z" id="Shape"></path>
                                <path d="M57.7691542,16.996875 C57.7691542,20.003125 57.5383085,22.6625 56.8457711,25.090625 C56.2686567,27.403125 55.3452736,29.484375 54.0756219,31.103125 C52.8059701,32.721875 51.3054726,33.99375 49.3432836,34.91875 C47.3810945,35.84375 45.0726368,36.190625 42.4179104,36.190625 C40.9174129,36.190625 39.5323383,36.075 38.3781095,35.84375 C37.2238806,35.6125 36.0696517,35.265625 35.1462687,34.91875 L36.4159204,30.871875 C37.1084577,31.21875 38.0318408,31.45 39.0706468,31.68125 C40.1094527,31.9125 41.0328358,31.9125 42.1870647,31.9125 C43.8029851,31.9125 45.0726368,31.68125 46.2268657,31.21875 C47.3810945,30.75625 48.3044776,30.178125 49.1124378,29.36875 C49.920398,28.559375 50.4975124,27.634375 50.959204,26.478125 C51.4208955,25.321875 51.7671642,24.165625 51.99801,22.778125 L52.2288557,21.275 C51.8825871,21.50625 51.4208955,21.7375 50.959204,21.96875 C50.4975124,22.2 50.0358209,22.43125 49.5741294,22.546875 C48.0736318,23.009375 46.5731343,23.240625 44.9572139,23.240625 C41.3791045,23.240625 38.6089552,22.315625 36.7621891,20.58125 C34.9154229,18.846875 33.9920398,16.1875 33.9920398,12.603125 C33.9920398,10.86875 34.2228856,9.25 34.8,7.746875 C35.2616915,6.359375 36.0696517,5.0875 37.1084577,4.046875 C38.1472637,3.00625 39.3014925,2.196875 40.80199,1.61875 C42.3024876,1.040625 43.918408,0.809375 45.880597,0.809375 C47.8427861,0.809375 49.5741294,1.15625 51.0746269,1.734375 C52.5751244,2.3125 53.8447761,3.2375 54.8835821,4.509375 C55.9223881,5.78125 56.7303483,7.4 57.1920398,9.48125 C57.5383085,11.678125 57.7691542,14.10625 57.7691542,16.996875 Z M51.99801,12.4875 C51.8825871,11.446875 51.7671642,10.40625 51.4208955,9.48125 C51.0746269,8.55625 50.7283582,7.746875 50.1512438,7.16875 C49.6895522,6.475 48.9970149,6.0125 48.1890547,5.665625 C47.3810945,5.31875 46.4577114,5.0875 45.4189055,5.0875 C43.4567164,5.0875 41.840796,5.665625 40.6865672,6.9375 C39.5323383,8.09375 38.9552239,9.94375 38.9552239,12.4875 C38.9552239,14.56875 39.5323383,16.1875 40.6865672,17.34375 C41.840796,18.5 43.4567164,19.078125 45.4189055,19.078125 C46.919403,19.078125 48.4199005,18.846875 49.6895522,18.26875 C50.1512438,18.153125 50.4975124,17.921875 50.959204,17.690625 C51.4208955,17.459375 51.7671642,17.228125 52.1134328,16.996875 C52.3442786,15.378125 52.2288557,13.990625 51.99801,12.4875 Z" id="Shape"></path>
                            </g>
                        </g>
                    </g>
                </g>
            </g>
        </g>
    </g>
</svg>