<?xml version="1.0" encoding="UTF-8"?>
<svg width="173px" height="29px" viewBox="0 0 173 29" version="1.1" xmlns="http://www.w3.org/2000/svg" xmlns:xlink="http://www.w3.org/1999/xlink">
    <!-- Generator: Sketch 46.2 (44496) - http://www.bohemiancoding.com/sketch -->
    <title>Вертикально Copy</title>
    <desc>Created with Sketch.</desc>
    <defs></defs>
    <g id="Page-1" stroke="none" stroke-width="1" fill="none" fill-rule="evenodd">
        <path d="M12.348,9.95 C13.3906719,10.3353353 14.2576632,10.9416625 14.949,11.769 C15.6403368,12.5963375 15.986,13.6333271 15.986,14.88 C15.986,15.9680054 15.7990019,16.8973295 15.425,17.668 C15.0509981,18.4386705 14.5466698,19.0676642 13.912,19.555 C13.2773302,20.0423358 12.5350042,20.4049988 11.685,20.643 C10.8349957,20.8810012 9.92267154,21 8.948,21 L0.21,21 L0.21,0.328 L8.438,0.328 C9.52600544,0.328 10.5006624,0.41866576 11.362,0.6 C12.2233376,0.78133424 12.9486637,1.07599796 13.538,1.484 C14.1273363,1.89200204 14.5806651,2.43032999 14.898,3.099 C15.2153349,3.76767001 15.374,4.57799524 15.374,5.53 C15.374,6.52733832 15.1020027,7.41132948 14.558,8.182 C14.0139973,8.95267052 13.277338,9.54199796 12.348,9.95 Z M11.09,6.108 C11.09,5.58666406 11.0106675,5.16166831 10.852,4.833 C10.6933325,4.50433169 10.483668,4.24366763 10.223,4.051 C9.96233203,3.85833237 9.6620017,3.72800034 9.322,3.66 C8.9819983,3.59199966 8.61933526,3.558 8.234,3.558 L4.222,3.558 L4.222,8.692 L8.268,8.692 C9.10667086,8.692 9.78666406,8.47100221 10.308,8.029 C10.8293359,7.58699779 11.09,6.94667086 11.09,6.108 Z M8.302,17.77 C8.73266882,17.77 9.15199796,17.7246671 9.56,17.634 C9.96800204,17.5433329 10.3193319,17.3903344 10.614,17.175 C10.9086681,16.9596656 11.1466658,16.6650019 11.328,16.291 C11.5093342,15.9169981 11.6,15.4353363 11.6,14.846 C11.6,14.2339969 11.5150008,13.7353353 11.345,13.35 C11.1749992,12.9646647 10.9370015,12.6530012 10.631,12.415 C10.3249985,12.1769988 9.97366865,12.0126671 9.577,11.922 C9.18033135,11.8313329 8.76666882,11.786 8.336,11.786 L4.222,11.786 L4.222,17.77 L8.302,17.77 Z M25.268,21.34 C22.6159867,21.34 20.751672,20.6996731 19.675,19.419 C18.598328,18.1383269 18.06,16.2400126 18.06,13.724 C18.06,8.75997518 20.4399762,6.278 25.2,6.278 C26.5146732,6.278 27.5856625,6.45366491 28.413,6.805 C29.2403375,7.15633509 29.886331,7.64933016 30.351,8.284 C30.815669,8.91866984 31.1329992,9.66099575 31.303,10.511 C31.4730009,11.3610042 31.558,12.2959949 31.558,13.316 L31.558,14.778 L22.242,14.778 C22.242,15.7753383 22.4346647,16.5799969 22.82,17.192 C23.3413359,18.0306709 24.372659,18.45 25.914,18.45 C27.047339,18.45 27.9539966,18.319668 28.634,18.059 C29.3140034,17.798332 29.9599969,17.5320014 30.572,17.26 L31.32,19.81 C31.0253319,19.9913342 30.6570022,20.1669992 30.215,20.337 C29.7729978,20.5070008 29.2800027,20.6713325 28.736,20.83 C28.1919973,20.9886675 27.6253363,21.1133329 27.036,21.204 C26.4466637,21.2946671 25.8573363,21.34 25.268,21.34 Z M27.342,12.126 C27.342,11.1059949 27.1720017,10.3183361 26.832,9.763 C26.4919983,9.20766389 25.9253373,8.93 25.132,8.93 C24.4973302,8.93 23.9873353,9.02633237 23.602,9.219 C23.2166647,9.41166763 22.9163344,9.70066474 22.701,10.086 C22.4856656,10.4713353 22.3553336,10.9473305 22.31,11.514 C22.2873332,11.6953342 22.276,11.8993322 22.276,12.126 L27.342,12.126 Z M37.474,6.618 L37.746,7.468 C38.2220024,7.15066508 38.7093308,6.90133424 39.208,6.72 C40.0466709,6.42533186 40.9419952,6.278 41.894,6.278 C43.956677,6.278 45.4753285,6.91832693 46.45,8.199 C47.4246715,9.47967307 47.912,11.2079891 47.912,13.384 C47.912,14.5400058 47.7873346,15.6053285 47.538,16.58 C47.2886654,17.5546715 46.8863361,18.3933298 46.331,19.096 C45.7756639,19.7986702 45.0560044,20.3483314 44.172,20.745 C43.2879956,21.1416686 42.2226729,21.34 40.976,21.34 C40.2959966,21.34 39.6500031,21.2493342 39.038,21.068 C38.8113322,20.9999997 38.5846678,20.9206671 38.358,20.83 L38.358,27.63 L34.278,28.174 L34.278,10.494 L34.006,6.618 L37.474,6.618 Z M38.834,18.28 C39.3326692,18.4386675 39.7973312,18.518 40.228,18.518 C40.7266692,18.518 41.1856646,18.4386675 41.605,18.28 C42.0243354,18.1213325 42.3869985,17.8550019 42.693,17.481 C42.9990015,17.1069981 43.2426658,16.6140031 43.424,16.002 C43.6053342,15.3899969 43.696,14.619338 43.696,13.69 C43.696,10.6526515 42.6420105,9.134 40.534,9.134 C39.8766634,9.134 39.2873359,9.29266508 38.766,9.61 C38.6299993,9.70066712 38.4940007,9.8026661 38.358,9.916 L38.358,18.076 C38.5166675,18.1666671 38.6753325,18.2346664 38.834,18.28 Z M49.136,9.61 L49.136,6.618 L61.852,6.618 L61.852,9.61 L57.534,9.61 L57.534,21 L53.454,21 L53.454,9.61 L49.136,9.61 Z M71.712,6.618 L77.424,6.618 L77.424,21 L73.548,21 L73.548,9.814 L73.31,9.814 L69.4,21 L63.688,21 L63.688,6.618 L67.564,6.618 L67.564,17.804 L67.802,17.804 L71.712,6.618 Z M80.688,21 L80.688,6.618 L84.734,6.618 L84.734,12.262 L85.686,12.262 L90.14,6.618 L94.492,6.618 L88.916,13.554 L94.764,21 L90.242,21 L85.686,15.22 L84.734,15.22 L84.734,21 L80.688,21 Z M109.044,21 C108.635998,21.0906671 108.126003,21.136 107.514,21.136 C106.697996,21.136 106.023669,21.0170012 105.491,20.779 C104.958331,20.5409988 104.533335,20.1726692 104.216,19.674 C103.694664,20.1726692 103.031671,20.5749985 102.227,20.881 C101.422329,21.1870015 100.66867,21.34 99.966,21.34 C98.9006613,21.34 98.0506698,21.2153346 97.416,20.966 C96.7813302,20.7166654 96.2826685,20.3766688 95.92,19.946 C95.5573315,19.5153312 95.3193339,19.0280027 95.206,18.484 C95.0926661,17.9399973 95.036,17.3733363 95.036,16.784 C95.036,15.8319952 95.1889985,15.0556697 95.495,14.455 C95.8010015,13.8543303 96.2373305,13.3840017 96.804,13.044 C97.3706695,12.7039983 98.0506627,12.4660007 98.844,12.33 C99.6373373,12.1939993 100.521328,12.126 101.496,12.126 C101.813335,12.126 102.164665,12.1316666 102.55,12.143 C102.935335,12.1543334 103.275332,12.1713332 103.57,12.194 L103.57,11.514 C103.57,10.7433295 103.349002,10.154002 102.907,9.746 C102.464998,9.33799796 101.756672,9.134 100.782,9.134 C99.9659959,9.134 99.1840037,9.23599898 98.436,9.44 C97.6879963,9.64400102 97.0193363,9.90466508 96.43,10.222 L95.614,7.74 C96.3846705,7.33199796 97.3253278,6.98633475 98.436,6.703 C99.5466722,6.41966525 100.668661,6.278 101.802,6.278 C102.935339,6.278 103.875996,6.37999898 104.624,6.584 C105.372004,6.78800102 105.972664,7.12233101 106.426,7.587 C106.879336,8.05166899 107.202332,8.66932948 107.395,9.44 C107.587668,10.2106705 107.684,11.1739942 107.684,12.33 L107.684,16.75 C107.684,17.3393363 107.797332,17.7416656 108.024,17.957 C108.250668,18.1723344 108.590664,18.28 109.044,18.28 L109.044,21 Z M101.53,14.778 C100.668662,14.778 100.073668,14.9423317 99.745,15.271 C99.4163317,15.5996683 99.252,16.0586637 99.252,16.648 C99.252,17.2600031 99.3709988,17.7359983 99.609,18.076 C99.8470012,18.4160017 100.294663,18.586 100.952,18.586 C101.314668,18.586 101.745331,18.5123341 102.244,18.365 C102.742669,18.2176659 103.184665,17.9626685 103.57,17.6 L103.57,14.88 C103.207332,14.8346664 102.856002,14.8063334 102.516,14.795 C102.175998,14.7836666 101.847335,14.778 101.53,14.778 Z M109.622,17.804 C109.735334,17.8266668 109.859999,17.8436666 109.996,17.855 C110.132001,17.8663334 110.279333,17.872 110.438,17.872 C110.710001,17.872 110.942332,17.8266671 111.135,17.736 C111.327668,17.6453329 111.503333,17.4753346 111.662,17.226 C111.820667,16.9766654 111.950999,16.619669 112.053,16.155 C112.155001,15.690331 112.24,15.095337 112.308,14.37 C112.353334,13.8713308 112.398666,13.2650036 112.444,12.551 C112.489334,11.8369964 112.529,11.1116703 112.563,10.375 C112.597,9.63832965 112.625333,8.93567001 112.648,8.267 C112.670667,7.59832999 112.682,7.04866882 112.682,6.618 L124.004,6.618 L124.004,21 L119.924,21 L119.924,9.61 L116.32,9.61 C116.274666,10.1993363 116.223667,10.9529954 116.167,11.871 C116.110333,12.7890046 116.025334,13.8033278 115.912,14.914 C115.662665,17.1353444 115.181004,18.7333285 114.467,19.708 C113.752996,20.6826715 112.704674,21.17 111.322,21.17 C110.936665,21.17 110.568335,21.1473336 110.217,21.102 C109.865665,21.0566664 109.599334,21.0000003 109.418,20.932 L109.622,17.804 Z M135.02,11.48 C135.72267,11.48 136.385664,11.5763324 137.009,11.769 C137.632336,11.9616676 138.176331,12.2506647 138.641,12.636 C139.105669,13.0213353 139.473999,13.5086637 139.746,14.098 C140.018001,14.6873363 140.154,15.3786627 140.154,16.172 C140.154,17.0106709 140.018001,17.7359969 139.746,18.348 C139.473999,18.9600031 139.088669,19.4586647 138.59,19.844 C138.091331,20.2293353 137.502003,20.5183324 136.822,20.711 C136.141997,20.9036676 135.382671,21 134.544,21 L127.268,21 L127.268,6.618 L131.28,6.618 L131.28,11.48 L135.02,11.48 Z M133.932,18.178 C135.314674,18.178 136.006,17.50934 136.006,16.172 C136.006,15.6279973 135.830335,15.1803351 135.479,14.829 C135.127665,14.4776649 134.612003,14.302 133.932,14.302 L131.28,14.302 L131.28,18.178 L133.932,18.178 Z M151.034,6.618 L155.114,6.618 L155.114,21 L151.034,21 L151.034,15.288 L146.478,15.288 L146.478,21 L142.398,21 L142.398,6.618 L146.478,6.618 L146.478,12.296 L151.034,12.296 L151.034,6.618 Z M164.702,21.34 C163.36466,21.34 162.254004,21.1643351 161.37,20.813 C160.485996,20.4616649 159.777669,19.9573366 159.245,19.3 C158.712331,18.6426634 158.338334,17.849338 158.123,16.92 C157.907666,15.990662 157.8,14.9366726 157.8,13.758 C157.8,11.2646542 158.406327,9.3946729 159.619,8.148 C160.831673,6.9013271 162.74132,6.278 165.348,6.278 C166.68534,6.278 167.795996,6.45366491 168.68,6.805 C169.564004,7.15633509 170.272331,7.66066338 170.805,8.318 C171.337669,8.97533662 171.717332,9.77432863 171.944,10.715 C172.170668,11.6556714 172.284,12.7153274 172.284,13.894 C172.284,16.3873458 171.672006,18.2516605 170.448,19.487 C169.223994,20.7223395 167.30868,21.34 164.702,21.34 Z M164.702,18.586 C166.03934,18.586 166.945998,18.1666709 167.422,17.328 C167.898002,16.4893291 168.136,15.2540082 168.136,13.622 C168.136,12.9873302 168.096334,12.3923361 168.017,11.837 C167.937666,11.2816639 167.796001,10.7943354 167.592,10.375 C167.387999,9.95566457 167.104668,9.62133458 166.742,9.372 C166.379332,9.12266542 165.914669,8.998 165.348,8.998 C164.033327,8.998 163.138002,9.42299575 162.662,10.273 C162.185998,11.1230042 161.948,12.3639918 161.948,13.996 C161.948,14.6306698 161.987666,15.2256639 162.067,15.781 C162.146334,16.3363361 162.287999,16.8236646 162.492,17.243 C162.696001,17.6623354 162.973665,17.9909988 163.325,18.229 C163.676335,18.4670012 164.13533,18.586 164.702,18.586 Z" id="Вертикально-Copy" fill="#A50034"></path>
    </g>
</svg>