<?xml version="1.0" encoding="UTF-8"?>
<svg width="254px" height="42px" viewBox="0 0 254 42" version="1.1" xmlns="http://www.w3.org/2000/svg" xmlns:xlink="http://www.w3.org/1999/xlink">
    <!-- Generator: Sketch 46.2 (44496) - http://www.bohemiancoding.com/sketch -->
    <title>Вертикально Copy 2</title>
    <desc>Created with Sketch.</desc>
    <defs></defs>
    <g id="Page-1" stroke="none" stroke-width="1" fill="none" fill-rule="evenodd">
        <path d="M18.1,14.75 C19.633341,15.3166695 20.9083283,16.2083272 21.925,17.425 C22.9416717,18.6416727 23.45,20.1666575 23.45,22 C23.45,23.600008 23.1750028,24.966661 22.625,26.1 C22.0749972,27.233339 21.333338,28.1583297 20.4,28.875 C19.466662,29.5916703 18.3750062,30.1249983 17.125,30.475 C15.8749938,30.8250017 14.5333405,31 13.1,31 L0.25,31 L0.25,0.6 L12.35,0.6 C13.950008,0.6 15.383327,0.733332 16.65,1 C17.916673,1.266668 18.983329,1.699997 19.85,2.3 C20.716671,2.900003 21.383331,3.69166175 21.85,4.675 C22.316669,5.65833825 22.55,6.849993 22.55,8.25 C22.55,9.716674 22.150004,11.016661 21.35,12.15 C20.549996,13.283339 19.4666735,14.149997 18.1,14.75 Z M16.25,9.1 C16.25,8.3333295 16.1333345,7.70833575 15.9,7.225 C15.6666655,6.74166425 15.3583352,6.35833475 14.975,6.075 C14.5916647,5.79166525 14.1500025,5.6000005 13.65,5.5 C13.1499975,5.3999995 12.6166695,5.35 12.05,5.35 L6.15,5.35 L6.15,12.9 L12.1,12.9 C13.3333395,12.9 14.3333295,12.5750033 15.1,11.925 C15.8666705,11.2749967 16.25,10.3333395 16.25,9.1 Z M12.15,26.25 C12.7833365,26.25 13.399997,26.183334 14,26.05 C14.600003,25.916666 15.1166645,25.6916683 15.55,25.375 C15.9833355,25.0583317 16.333332,24.6250028 16.6,24.075 C16.866668,23.5249973 17,22.816671 17,21.95 C17,21.0499955 16.8750012,20.3166695 16.625,19.75 C16.3749988,19.1833305 16.0250022,18.7250018 15.575,18.375 C15.1249978,18.0249982 14.6083362,17.783334 14.025,17.65 C13.4416637,17.516666 12.8333365,17.45 12.2,17.45 L6.15,17.45 L6.15,26.25 L12.15,26.25 Z M37.1,31.5 C33.1999805,31.5 30.4583413,30.5583428 28.875,28.675 C27.2916587,26.7916573 26.5,24.0000185 26.5,20.3 C26.5,12.9999635 29.999965,9.35 37,9.35 C38.933343,9.35 40.5083273,9.60833075 41.725,10.125 C42.9416728,10.6416692 43.8916632,11.366662 44.575,12.3 C45.2583368,13.233338 45.7249987,14.3249937 45.975,15.575 C46.2250012,16.8250063 46.35,18.1999925 46.35,19.7 L46.35,21.85 L32.65,21.85 C32.65,23.316674 32.9333305,24.4999955 33.5,25.4 C34.2666705,26.6333395 35.783322,27.25 38.05,27.25 C39.716675,27.25 41.049995,27.0583353 42.05,26.675 C43.050005,26.2916648 43.9999955,25.900002 44.9,25.5 L46,29.25 C45.5666645,29.516668 45.0250032,29.7749987 44.375,30.025 C43.7249968,30.2750013 43.000004,30.5166655 42.2,30.75 C41.399996,30.9833345 40.566671,31.166666 39.7,31.3 C38.833329,31.433334 37.966671,31.5 37.1,31.5 Z M40.15,17.95 C40.15,16.4499925 39.9000025,15.2916708 39.4,14.475 C38.8999975,13.6583292 38.0666725,13.25 36.9,13.25 C35.966662,13.25 35.2166695,13.3916652 34.65,13.675 C34.0833305,13.9583347 33.6416682,14.3833305 33.325,14.95 C33.0083317,15.5166695 32.816667,16.2166625 32.75,17.05 C32.7166665,17.316668 32.7,17.616665 32.7,17.95 L40.15,17.95 Z M55.05,9.85 L55.45,11.1 C56.1500035,10.633331 56.866663,10.266668 57.6,10 C58.8333395,9.5666645 60.149993,9.35 61.55,9.35 C64.5833485,9.35 66.8166595,10.2916573 68.25,12.175 C69.6833405,14.0583428 70.4,16.599984 70.4,19.8 C70.4,21.5000085 70.2166685,23.0666595 69.85,24.5 C69.4833315,25.9333405 68.8916708,27.1666615 68.075,28.2 C67.2583292,29.2333385 66.2000065,30.0416637 64.9,30.625 C63.5999935,31.2083363 62.0333425,31.5 60.2,31.5 C59.199995,31.5 58.2500045,31.366668 57.35,31.1 C57.016665,30.9999995 56.683335,30.883334 56.35,30.75 L56.35,40.75 L50.35,41.55 L50.35,15.55 L49.95,9.85 L55.05,9.85 Z M57.05,27 C57.783337,27.2333345 58.4666635,27.35 59.1,27.35 C59.833337,27.35 60.5083303,27.2333345 61.125,27 C61.7416697,26.7666655 62.2749977,26.3750028 62.725,25.825 C63.1750023,25.2749973 63.533332,24.5500045 63.8,23.65 C64.066668,22.7499955 64.2,21.6166735 64.2,20.25 C64.2,15.783311 62.6500155,13.55 59.55,13.55 C58.5833285,13.55 57.7166705,13.783331 56.95,14.25 C56.749999,14.383334 56.550001,14.5333325 56.35,14.7 L56.35,26.7 C56.5833345,26.833334 56.8166655,26.933333 57.05,27 Z M72.2,14.25 L72.2,9.85 L90.9,9.85 L90.9,14.25 L84.55,14.25 L84.55,31 L78.55,31 L78.55,14.25 L72.2,14.25 Z M105.4,9.85 L113.8,9.85 L113.8,31 L108.1,31 L108.1,14.55 L107.75,14.55 L102,31 L93.6,31 L93.6,9.85 L99.3,9.85 L99.3,26.3 L99.65,26.3 L105.4,9.85 Z M118.6,31 L118.6,9.85 L124.55,9.85 L124.55,18.15 L125.95,18.15 L132.5,9.85 L138.9,9.85 L130.7,20.05 L139.3,31 L132.65,31 L125.95,22.5 L124.55,22.5 L124.55,31 L118.6,31 Z M160.3,31 C159.699997,31.133334 158.950004,31.2 158.05,31.2 C156.849994,31.2 155.858337,31.0250018 155.075,30.675 C154.291663,30.3249982 153.666669,29.783337 153.2,29.05 C152.43333,29.783337 151.458339,30.3749977 150.275,30.825 C149.091661,31.2750022 147.983339,31.5 146.95,31.5 C145.383325,31.5 144.133338,31.3166685 143.2,30.95 C142.266662,30.5833315 141.533336,30.0833365 141,29.45 C140.466664,28.8166635 140.116667,28.100004 139.95,27.3 C139.783333,26.499996 139.7,25.666671 139.7,24.8 C139.7,23.399993 139.924998,22.2583378 140.375,21.375 C140.825002,20.4916622 141.466662,19.8000025 142.3,19.3 C143.133337,18.7999975 144.133328,18.450001 145.3,18.25 C146.466673,18.049999 147.76666,17.95 149.2,17.95 C149.666669,17.95 150.183331,17.9583332 150.75,17.975 C151.316669,17.9916667 151.816665,18.0166665 152.25,18.05 L152.25,17.05 C152.25,15.916661 151.925003,15.050003 151.275,14.45 C150.624997,13.849997 149.58334,13.55 148.15,13.55 C146.949994,13.55 145.800006,13.6999985 144.7,14 C143.599994,14.3000015 142.616671,14.683331 141.75,15.15 L140.55,11.5 C141.683339,10.899997 143.066658,10.3916688 144.7,9.975 C146.333342,9.55833125 147.983325,9.35 149.65,9.35 C151.316675,9.35 152.699994,9.4999985 153.8,9.8 C154.900006,10.1000015 155.78333,10.5916633 156.45,11.275 C157.11667,11.9583367 157.591665,12.866661 157.875,14 C158.158335,15.133339 158.3,16.5499915 158.3,18.25 L158.3,24.75 C158.3,25.616671 158.466665,26.2083318 158.8,26.525 C159.133335,26.8416683 159.63333,27 160.3,27 L160.3,31 Z M149.25,21.85 C147.983327,21.85 147.108336,22.0916642 146.625,22.575 C146.141664,23.0583357 145.9,23.733329 145.9,24.6 C145.9,25.5000045 146.074998,26.1999975 146.425,26.7 C146.775002,27.2000025 147.433328,27.45 148.4,27.45 C148.933336,27.45 149.566663,27.3416677 150.3,27.125 C151.033337,26.9083323 151.683331,26.533336 152.25,26 L152.25,22 C151.716664,21.933333 151.200002,21.8916668 150.7,21.875 C150.199997,21.8583332 149.716669,21.85 149.25,21.85 Z M161.15,26.3 C161.316668,26.3333335 161.499999,26.3583332 161.7,26.375 C161.900001,26.3916668 162.116666,26.4 162.35,26.4 C162.750002,26.4 163.091665,26.333334 163.375,26.2 C163.658335,26.066666 163.916665,25.8166685 164.15,25.45 C164.383334,25.0833315 164.574999,24.5583368 164.725,23.875 C164.875001,23.1916632 164.999999,22.316672 165.1,21.25 C165.166667,20.516663 165.233333,19.6250052 165.3,18.575 C165.366667,17.5249947 165.425,16.4583387 165.475,15.375 C165.525,14.2916613 165.566666,13.2583382 165.6,12.275 C165.633333,11.2916618 165.65,10.4833365 165.65,9.85 L182.3,9.85 L182.3,31 L176.3,31 L176.3,14.25 L171,14.25 C170.933333,15.116671 170.858334,16.2249932 170.775,17.575 C170.691666,18.9250067 170.566668,20.4166585 170.4,22.05 C170.033331,25.316683 169.325005,27.6666595 168.275,29.1 C167.224995,30.5333405 165.683343,31.25 163.65,31.25 C163.083331,31.25 162.541669,31.216667 162.025,31.15 C161.508331,31.083333 161.116668,31.0000005 160.85,30.9 L161.15,26.3 Z M198.5,17 C199.533338,17 200.508329,17.1416652 201.425,17.425 C202.341671,17.7083347 203.141663,18.1333305 203.825,18.7 C204.508337,19.2666695 205.049998,19.983329 205.45,20.85 C205.850002,21.716671 206.05,22.7333275 206.05,23.9 C206.05,25.1333395 205.850002,26.1999955 205.45,27.1 C205.049998,28.0000045 204.483337,28.7333305 203.75,29.3 C203.016663,29.8666695 202.150005,30.2916653 201.15,30.575 C200.149995,30.8583348 199.033339,31 197.8,31 L187.1,31 L187.1,9.85 L193,9.85 L193,17 L198.5,17 Z M196.9,26.85 C198.933343,26.85 199.95,25.8666765 199.95,23.9 C199.95,23.099996 199.691669,22.4416692 199.175,21.925 C198.658331,21.4083308 197.900005,21.15 196.9,21.15 L193,21.15 L193,26.85 L196.9,26.85 Z M222.05,9.85 L228.05,9.85 L228.05,31 L222.05,31 L222.05,22.6 L215.35,22.6 L215.35,31 L209.35,31 L209.35,9.85 L215.35,9.85 L215.35,18.2 L222.05,18.2 L222.05,9.85 Z M242.15,31.5 C240.183323,31.5 238.550007,31.2416693 237.25,30.725 C235.949993,30.2083307 234.908337,29.4666715 234.125,28.5 C233.341663,27.5333285 232.791668,26.3666735 232.475,25 C232.158332,23.6333265 232,22.083342 232,20.35 C232,16.683315 232.891658,13.9333425 234.675,12.1 C236.458342,10.2666575 239.266648,9.35 243.1,9.35 C245.066677,9.35 246.699993,9.60833075 248,10.125 C249.300007,10.6416692 250.341663,11.3833285 251.125,12.35 C251.908337,13.3166715 252.466665,14.4916598 252.8,15.875 C253.133335,17.2583402 253.3,18.816658 253.3,20.55 C253.3,24.216685 252.400009,26.9583243 250.6,28.775 C248.799991,30.5916757 245.983352,31.5 242.15,31.5 Z M242.15,27.45 C244.116676,27.45 245.449996,26.8333395 246.15,25.6 C246.850003,24.3666605 247.2,22.550012 247.2,20.15 C247.2,19.216662 247.141667,18.3416708 247.025,17.525 C246.908333,16.7083292 246.700001,15.9916698 246.4,15.375 C246.099998,14.7583302 245.683336,14.2666685 245.15,13.9 C244.616664,13.5333315 243.933338,13.35 243.1,13.35 C241.166657,13.35 239.850004,13.9749938 239.15,15.225 C238.449996,16.4750062 238.1,18.299988 238.1,20.7 C238.1,21.633338 238.158333,22.5083293 238.275,23.325 C238.391667,24.1416708 238.599998,24.8583303 238.9,25.475 C239.200001,26.0916697 239.608331,26.5749982 240.125,26.925 C240.641669,27.2750018 241.316662,27.45 242.15,27.45 Z" id="Вертикально-Copy-2" fill="#000000"></path>
    </g>
</svg>