<?xml version="1.0" encoding="UTF-8"?>
<svg width="116px" height="22px" viewBox="0 0 116 22" version="1.1" xmlns="http://www.w3.org/2000/svg" xmlns:xlink="http://www.w3.org/1999/xlink">
    <!-- Generator: Sketch 46.2 (44496) - http://www.bohemiancoding.com/sketch -->
    <title>На стене Copy</title>
    <desc>Created with Sketch.</desc>
    <defs></defs>
    <g id="Page-1" stroke="none" stroke-width="1" fill="none" fill-rule="evenodd">
        <path d="M17.04,0.328 L17.04,21 L12.892,21 L12.892,12.296 L4.358,12.296 L4.358,21 L0.21,21 L0.21,0.328 L4.358,0.328 L4.358,8.998 L12.892,8.998 L12.892,0.328 L17.04,0.328 Z M34.108,21 C33.699998,21.0906671 33.1900031,21.136 32.578,21.136 C31.7619959,21.136 31.0876693,21.0170012 30.555,20.779 C30.0223307,20.5409988 29.5973349,20.1726692 29.28,19.674 C28.7586641,20.1726692 28.0956707,20.5749985 27.291,20.881 C26.4863293,21.1870015 25.7326702,21.34 25.03,21.34 C23.9646613,21.34 23.1146698,21.2153346 22.48,20.966 C21.8453302,20.7166654 21.3466685,20.3766688 20.984,19.946 C20.6213315,19.5153312 20.3833339,19.0280027 20.27,18.484 C20.1566661,17.9399973 20.1,17.3733363 20.1,16.784 C20.1,15.8319952 20.2529985,15.0556697 20.559,14.455 C20.8650015,13.8543303 21.3013305,13.3840017 21.868,13.044 C22.4346695,12.7039983 23.1146627,12.4660007 23.908,12.33 C24.7013373,12.1939993 25.5853285,12.126 26.56,12.126 C26.8773349,12.126 27.2286647,12.1316666 27.614,12.143 C27.9993353,12.1543334 28.3393319,12.1713332 28.634,12.194 L28.634,11.514 C28.634,10.7433295 28.4130022,10.154002 27.971,9.746 C27.5289978,9.33799796 26.8206715,9.134 25.846,9.134 C25.0299959,9.134 24.2480037,9.23599898 23.5,9.44 C22.7519963,9.64400102 22.0833363,9.90466508 21.494,10.222 L20.678,7.74 C21.4486705,7.33199796 22.3893278,6.98633475 23.5,6.703 C24.6106722,6.41966525 25.732661,6.278 26.866,6.278 C27.999339,6.278 28.9399963,6.37999898 29.688,6.584 C30.4360037,6.78800102 31.0366644,7.12233101 31.49,7.587 C31.9433356,8.05166899 32.2663324,8.66932948 32.459,9.44 C32.6516676,10.2106705 32.748,11.1739942 32.748,12.33 L32.748,16.75 C32.748,17.3393363 32.8613322,17.7416656 33.088,17.957 C33.3146678,18.1723344 33.6546644,18.28 34.108,18.28 L34.108,21 Z M26.594,14.778 C25.7326624,14.778 25.1376683,14.9423317 24.809,15.271 C24.4803317,15.5996683 24.316,16.0586637 24.316,16.648 C24.316,17.2600031 24.4349988,17.7359983 24.673,18.076 C24.9110012,18.4160017 25.3586634,18.586 26.016,18.586 C26.3786685,18.586 26.8093308,18.5123341 27.308,18.365 C27.8066692,18.2176659 28.2486647,17.9626685 28.634,17.6 L28.634,14.88 C28.2713315,14.8346664 27.9200017,14.8063334 27.58,14.795 C27.2399983,14.7836666 26.9113349,14.778 26.594,14.778 Z M55.358,20.014 C54.8366641,20.3766685 54.111338,20.688332 53.182,20.949 C52.252662,21.209668 51.1986726,21.34 50.02,21.34 C47.3906535,21.34 45.5320054,20.7166729 44.444,19.47 C43.3559946,18.2233271 42.812,16.4100119 42.812,14.03 C42.812,11.4233203 43.4749934,9.47967307 44.801,8.199 C46.1270066,6.91832693 48.0593206,6.278 50.598,6.278 C51.6860054,6.278 52.694662,6.45366491 53.624,6.805 C54.553338,7.15633509 55.2559976,7.62666372 55.732,8.216 L53.454,10.392 C53.0686647,9.91599762 52.6380024,9.58166763 52.162,9.389 C51.6859976,9.19633237 51.1533363,9.1 50.564,9.1 C49.3399939,9.1 48.4276697,9.47966287 47.827,10.239 C47.2263303,10.9983371 46.926,12.2619912 46.926,14.03 C46.926,15.4580071 47.1866641,16.5629961 47.708,17.345 C48.2293359,18.1270039 49.1359935,18.518 50.428,18.518 C51.2893376,18.518 52.0316635,18.4216676 52.655,18.229 C53.2783365,18.0363324 53.9299966,17.7700017 54.61,17.43 L55.358,20.014 Z M56.514,9.61 L56.514,6.618 L69.23,6.618 L69.23,9.61 L64.912,9.61 L64.912,21 L60.832,21 L60.832,9.61 L56.514,9.61 Z M77.696,21.34 C75.0439867,21.34 73.1796721,20.6996731 72.103,19.419 C71.0263279,18.1383269 70.488,16.2400126 70.488,13.724 C70.488,8.75997518 72.8679762,6.278 77.628,6.278 C78.9426732,6.278 80.0136625,6.45366491 80.841,6.805 C81.6683375,7.15633509 82.314331,7.64933016 82.779,8.284 C83.243669,8.91866984 83.5609992,9.66099575 83.731,10.511 C83.9010008,11.3610042 83.986,12.2959949 83.986,13.316 L83.986,14.778 L74.67,14.778 C74.67,15.7753383 74.8626647,16.5799969 75.248,17.192 C75.7693359,18.0306709 76.800659,18.45 78.342,18.45 C79.475339,18.45 80.3819966,18.319668 81.062,18.059 C81.7420034,17.798332 82.3879969,17.5320014 83,17.26 L83.748,19.81 C83.4533319,19.9913342 83.0850022,20.1669992 82.643,20.337 C82.2009978,20.5070008 81.7080027,20.6713325 81.164,20.83 C80.6199973,20.9886675 80.0533363,21.1133329 79.464,21.204 C78.8746637,21.2946671 78.2853363,21.34 77.696,21.34 Z M79.77,12.126 C79.77,11.1059949 79.6000017,10.3183361 79.26,9.763 C78.9199983,9.20766389 78.3533373,8.93 77.56,8.93 C76.9253302,8.93 76.4153353,9.02633237 76.03,9.219 C75.6446647,9.41166763 75.3443344,9.70066474 75.129,10.086 C74.9136656,10.4713353 74.7833336,10.9473305 74.738,11.514 C74.7153332,11.6953342 74.704,11.8993322 74.704,12.126 L79.77,12.126 Z M95.308,6.618 L99.388,6.618 L99.388,21 L95.308,21 L95.308,15.288 L90.752,15.288 L90.752,21 L86.672,21 L86.672,6.618 L90.752,6.618 L90.752,12.296 L95.308,12.296 L95.308,6.618 Z M109.282,21.34 C106.629987,21.34 104.765672,20.6996731 103.689,19.419 C102.612328,18.1383269 102.074,16.2400126 102.074,13.724 C102.074,8.75997518 104.453976,6.278 109.214,6.278 C110.528673,6.278 111.599663,6.45366491 112.427,6.805 C113.254337,7.15633509 113.900331,7.64933016 114.365,8.284 C114.829669,8.91866984 115.146999,9.66099575 115.317,10.511 C115.487001,11.3610042 115.572,12.2959949 115.572,13.316 L115.572,14.778 L106.256,14.778 C106.256,15.7753383 106.448665,16.5799969 106.834,17.192 C107.355336,18.0306709 108.386659,18.45 109.928,18.45 C111.061339,18.45 111.967997,18.319668 112.648,18.059 C113.328003,17.798332 113.973997,17.5320014 114.586,17.26 L115.334,19.81 C115.039332,19.9913342 114.671002,20.1669992 114.229,20.337 C113.786998,20.5070008 113.294003,20.6713325 112.75,20.83 C112.205997,20.9886675 111.639336,21.1133329 111.05,21.204 C110.460664,21.2946671 109.871336,21.34 109.282,21.34 Z M111.356,12.126 C111.356,11.1059949 111.186002,10.3183361 110.846,9.763 C110.505998,9.20766389 109.939337,8.93 109.146,8.93 C108.51133,8.93 108.001335,9.02633237 107.616,9.219 C107.230665,9.41166763 106.930334,9.70066474 106.715,10.086 C106.499666,10.4713353 106.369334,10.9473305 106.324,11.514 C106.301333,11.6953342 106.29,11.8993322 106.29,12.126 L111.356,12.126 Z" id="На-стене-Copy" fill="#A50034"></path>
    </g>
</svg>