<?xml version="1.0" encoding="UTF-8"?>
<svg width="170px" height="32px" viewBox="0 0 170 32" version="1.1" xmlns="http://www.w3.org/2000/svg" xmlns:xlink="http://www.w3.org/1999/xlink">
    <!-- Generator: Sketch 46.2 (44496) - http://www.bohemiancoding.com/sketch -->
    <title>На стене Copy 2</title>
    <desc>Created with Sketch.</desc>
    <defs></defs>
    <g id="Page-1" stroke="none" stroke-width="1" fill="none" fill-rule="evenodd">
        <path d="M25,0.6 L25,31 L18.9,31 L18.9,18.2 L6.35,18.2 L6.35,31 L0.25,31 L0.25,0.6 L6.35,0.6 L6.35,13.35 L18.9,13.35 L18.9,0.6 L25,0.6 Z M50.1,31 C49.499997,31.133334 48.7500045,31.2 47.85,31.2 C46.649994,31.2 45.6583372,31.0250018 44.875,30.675 C44.0916628,30.3249982 43.466669,29.783337 43,29.05 C42.2333295,29.783337 41.2583393,30.3749977 40.075,30.825 C38.8916608,31.2750022 37.7833385,31.5 36.75,31.5 C35.1833255,31.5 33.933338,31.3166685 33,30.95 C32.066662,30.5833315 31.333336,30.0833365 30.8,29.45 C30.266664,28.8166635 29.9166675,28.100004 29.75,27.3 C29.5833325,26.499996 29.5,25.666671 29.5,24.8 C29.5,23.399993 29.7249978,22.2583378 30.175,21.375 C30.6250022,20.4916622 31.2666625,19.8000025 32.1,19.3 C32.9333375,18.7999975 33.9333275,18.450001 35.1,18.25 C36.2666725,18.049999 37.5666595,17.95 39,17.95 C39.466669,17.95 39.9833305,17.9583332 40.55,17.975 C41.1166695,17.9916667 41.6166645,18.0166665 42.05,18.05 L42.05,17.05 C42.05,15.916661 41.7250033,15.050003 41.075,14.45 C40.4249967,13.849997 39.3833405,13.55 37.95,13.55 C36.749994,13.55 35.6000055,13.6999985 34.5,14 C33.3999945,14.3000015 32.416671,14.683331 31.55,15.15 L30.35,11.5 C31.483339,10.899997 32.8666585,10.3916688 34.5,9.975 C36.1333415,9.55833125 37.783325,9.35 39.45,9.35 C41.116675,9.35 42.4999945,9.4999985 43.6,9.8 C44.7000055,10.1000015 45.58333,10.5916633 46.25,11.275 C46.91667,11.9583367 47.3916653,12.866661 47.675,14 C47.9583348,15.133339 48.1,16.5499915 48.1,18.25 L48.1,24.75 C48.1,25.616671 48.266665,26.2083318 48.6,26.525 C48.933335,26.8416683 49.43333,27 50.1,27 L50.1,31 Z M39.05,21.85 C37.783327,21.85 36.9083357,22.0916642 36.425,22.575 C35.9416643,23.0583357 35.7,23.733329 35.7,24.6 C35.7,25.5000045 35.8749982,26.1999975 36.225,26.7 C36.5750017,27.2000025 37.2333285,27.45 38.2,27.45 C38.733336,27.45 39.366663,27.3416677 40.1,27.125 C40.833337,26.9083323 41.4833305,26.533336 42.05,26 L42.05,22 C41.516664,21.933333 41.0000025,21.8916668 40.5,21.875 C39.9999975,21.8583332 39.516669,21.85 39.05,21.85 Z M81.35,29.55 C80.5833295,30.083336 79.5166735,30.5416648 78.15,30.925 C76.7833265,31.3083353 75.233342,31.5 73.5,31.5 C69.633314,31.5 66.900008,30.5833425 65.3,28.75 C63.699992,26.9166575 62.9,24.2500175 62.9,20.75 C62.9,16.9166475 63.8749902,14.0583428 65.825,12.175 C67.7750098,10.2916573 70.616648,9.35 74.35,9.35 C75.950008,9.35 77.4333265,9.60833075 78.8,10.125 C80.1666735,10.6416692 81.1999965,11.333329 81.9,12.2 L78.55,15.4 C77.9833305,14.6999965 77.3500035,14.2083347 76.65,13.925 C75.9499965,13.6416652 75.166671,13.5 74.3,13.5 C72.499991,13.5 71.1583378,14.0583277 70.275,15.175 C69.3916623,16.2916722 68.95,18.149987 68.95,20.75 C68.95,22.8500105 69.3333295,24.4749943 70.1,25.625 C70.8666705,26.7750057 72.1999905,27.35 74.1,27.35 C75.366673,27.35 76.4583287,27.2083347 77.375,26.925 C78.2916713,26.6416652 79.249995,26.2500025 80.25,25.75 L81.35,29.55 Z M83.05,14.25 L83.05,9.85 L101.75,9.85 L101.75,14.25 L95.4,14.25 L95.4,31 L89.4,31 L89.4,14.25 L83.05,14.25 Z M114.2,31.5 C110.29998,31.5 107.558341,30.5583428 105.975,28.675 C104.391659,26.7916573 103.6,24.0000185 103.6,20.3 C103.6,12.9999635 107.099965,9.35 114.1,9.35 C116.033343,9.35 117.608327,9.60833075 118.825,10.125 C120.041673,10.6416692 120.991663,11.366662 121.675,12.3 C122.358337,13.233338 122.824999,14.3249937 123.075,15.575 C123.325001,16.8250063 123.45,18.1999925 123.45,19.7 L123.45,21.85 L109.75,21.85 C109.75,23.316674 110.03333,24.4999955 110.6,25.4 C111.366671,26.6333395 112.883322,27.25 115.15,27.25 C116.816675,27.25 118.149995,27.0583353 119.15,26.675 C120.150005,26.2916648 121.099996,25.900002 122,25.5 L123.1,29.25 C122.666665,29.516668 122.125003,29.7749987 121.475,30.025 C120.824997,30.2750013 120.100004,30.5166655 119.3,30.75 C118.499996,30.9833345 117.666671,31.166666 116.8,31.3 C115.933329,31.433334 115.066671,31.5 114.2,31.5 Z M117.25,17.95 C117.25,16.4499925 117.000002,15.2916708 116.5,14.475 C115.999998,13.6583292 115.166673,13.25 114,13.25 C113.066662,13.25 112.316669,13.3916652 111.75,13.675 C111.183331,13.9583347 110.741668,14.3833305 110.425,14.95 C110.108332,15.5166695 109.916667,16.2166625 109.85,17.05 C109.816666,17.316668 109.8,17.616665 109.8,17.95 L117.25,17.95 Z M140.1,9.85 L146.1,9.85 L146.1,31 L140.1,31 L140.1,22.6 L133.4,22.6 L133.4,31 L127.4,31 L127.4,9.85 L133.4,9.85 L133.4,18.2 L140.1,18.2 L140.1,9.85 Z M160.65,31.5 C156.749981,31.5 154.008341,30.5583428 152.425,28.675 C150.841659,26.7916573 150.05,24.0000185 150.05,20.3 C150.05,12.9999635 153.549965,9.35 160.55,9.35 C162.483343,9.35 164.058327,9.60833075 165.275,10.125 C166.491673,10.6416692 167.441663,11.366662 168.125,12.3 C168.808337,13.233338 169.274999,14.3249937 169.525,15.575 C169.775001,16.8250063 169.9,18.1999925 169.9,19.7 L169.9,21.85 L156.2,21.85 C156.2,23.316674 156.483331,24.4999955 157.05,25.4 C157.81667,26.6333395 159.333322,27.25 161.6,27.25 C163.266675,27.25 164.599995,27.0583353 165.6,26.675 C166.600005,26.2916648 167.549996,25.900002 168.45,25.5 L169.55,29.25 C169.116664,29.516668 168.575003,29.7749987 167.925,30.025 C167.274997,30.2750013 166.550004,30.5166655 165.75,30.75 C164.949996,30.9833345 164.116671,31.166666 163.25,31.3 C162.383329,31.433334 161.516671,31.5 160.65,31.5 Z M163.7,17.95 C163.7,16.4499925 163.450002,15.2916708 162.95,14.475 C162.449997,13.6583292 161.616672,13.25 160.45,13.25 C159.516662,13.25 158.766669,13.3916652 158.2,13.675 C157.63333,13.9583347 157.191668,14.3833305 156.875,14.95 C156.558332,15.5166695 156.366667,16.2166625 156.3,17.05 C156.266667,17.316668 156.25,17.616665 156.25,17.95 L163.7,17.95 Z" id="На-стене-Copy-2" fill="#000000"></path>
    </g>
</svg>